<?xml version="1.0" encoding="utf-8"?>
<!-- Generator: Adobe Illustrator 23.0.5, SVG Export Plug-In . SVG Version: 6.00 Build 0)  -->
<svg version="1.1"
	 id="Layer_1" inkscape:export-filename="C:\Users\jbrazio\Desktop\marlin.png" inkscape:export-xdpi="27.424898" inkscape:export-ydpi="27.424898" inkscape:version="0.91 r13725" sodipodi:docname="marlin.svg" xmlns:cc="http://creativecommons.org/ns#" xmlns:dc="http://purl.org/dc/elements/1.1/" xmlns:inkscape="http://www.inkscape.org/namespaces/inkscape" xmlns:rdf="http://www.w3.org/1999/02/22-rdf-syntax-ns#" xmlns:sodipodi="http://sodipodi.sourceforge.net/DTD/sodipodi-0.dtd" xmlns:svg="http://www.w3.org/2000/svg"
	 xmlns="http://www.w3.org/2000/svg" xmlns:xlink="http://www.w3.org/1999/xlink" x="0px" y="0px" viewBox="0 0 595.3 841.9"
	 style="enable-background:new 0 0 595.3 841.9;" xml:space="preserve">
<style type="text/css">
	.st0{stroke:#000000;stroke-width:7;stroke-miterlimit:10;}
	.st1{stroke:#000000;stroke-width:0.5;stroke-miterlimit:10;}
</style>
<g id="g3335" transform="matrix(1.2688266,0,0,1.2688266,0.33525798,503.35041)">
	<path id="path3337" inkscape:connector-curvature="0" class="st0" d="M206.9-49.7l-172,0.1l-3.8,1.3C19.3-44.4,10.2-34.5,7.4-22.7
		c-0.8,3.2-0.8,9.5-0.7,48.9c0.2,45,0.2,45.2,1.4,48.8c3.6,10.4,12,18.9,22.4,22.4l4.4,1.5L232.8,99c181.8,0.1,198.3,0.1,202-0.8
		c13.2-2.9,23.2-12.6,26.6-25.8c0.7-2.6,0.8-6.8,0.8-20.3c0-17,0-102,0-102S378.6-49.9,206.9-49.7z M420.7-7.5l37.8,38.4l0,18.6
		c0,20.8-0.3,23-3.6,29.3c-3.6,6.9-10.6,12.7-18.1,15L433,95H234.2H35.5l-3.6-1.3C22.4,90.3,15.2,83.2,12,73.9l-1.3-3.6V24.7V-21
		l1.3-3.7c3.7-10.8,13.5-19.2,24.3-20.8c1.7-0.2,80.4-0.5,174.9-0.5l171.8,0L420.7-7.5L420.7-7.5z"/>
	<path id="path3339" inkscape:connector-curvature="0" class="st1" d="M304,13.4c0,31.6,0.1,37.5,0.9,41.1
		c2.7,13.2,11.7,20.5,25.4,20.5h4.6l-0.1-8l-0.2-8l-3-0.2c-3.3-0.3-5.2-1.1-7-3c-2.7-2.9-2.6-2.3-2.8-41.8l-0.2-37.2h-8.8H304
		L304,13.4L304,13.4z"/>
	<path id="path3341" inkscape:connector-curvature="0" class="st1" d="M59.9-18.2C51-15.8,43.1-9.6,39.4-1.9
		c-3.7,7.5-3.6,7.1-3.6,42.8c0,30.5,0.1,32.3,1,33.1c0.8,0.8,2.3,0.9,8.8,0.9h7.8l0-32.3c0-20.6,0.2-33,0.6-34.3
		C55.4,3,61.2-1.4,67.3-1.9c7-0.6,13.1,2.8,15.8,8.8l1.3,2.9l0.2,32.6L84.7,75h8.8h8.8V43.2c0-34.7,0-35.1,3.2-39.5
		c2.2-3,6.5-5.2,10.8-5.6c6.8-0.5,12.5,2.5,15.6,8.3l1.5,2.8l0.2,32.8l0.2,32.8h8.8h8.8V42.3c0-30.4-0.1-32.9-1.1-36.8
		c-1.6-6.4-4-10.6-8.8-15.3c-6.5-6.5-13.5-9.3-23.2-9.3c-8.9,0-15.4,2.5-21.5,8.2l-3.5,3.3l-1.2-1.6c-2.1-2.8-8.7-7-13.4-8.5
		C75-18.8,73.1-19,68.6-19C65.5-19,61.6-18.6,59.9-18.2z"/>
	<path id="path3343" inkscape:connector-curvature="0" class="st1" d="M343.6-18.1c-1.1,0.5-2.5,1.8-3.2,2.9
		c-1.1,1.7-1.2,2.5-1.2,8.4v6.5h8.8h8.8v-5.8c0-6.5-0.6-8.5-3.2-10.9C351.4-19.2,346.6-19.7,343.6-18.1z"/>
	<path id="path3345" inkscape:connector-curvature="0" class="st1" d="M179.8,6.4c-6,1.8-9.6,4-14.3,8.6c-4.9,4.8-8.1,10.6-9.6,17.4
		c-1.4,6.1-0.9,14.4,1.1,20c3,8.4,9.1,15.4,16.5,19c5.4,2.7,10.1,3.5,19.4,3.5l7.8,0v-8.5V58l-7.3-0.2c-6.4-0.2-7.7-0.4-10.3-1.6
		c-4.2-1.9-6.8-4.4-8.6-8.1c-1.3-2.7-1.5-3.8-1.5-7.8c0-4,0.2-5.1,1.5-7.8c1.9-3.8,5.1-7.1,8.5-8.8c3.7-1.8,10.9-1.8,14.3,0
		c3.4,1.8,6.6,5.2,8.3,8.8l1.5,3.1l0.2,19.7l0.2,19.7H232h24.7l0-21.6c0-24.4,0-24.3,4.3-28c6.3-5.4,16.4-3.9,19.9,2.9
		c0.7,1.4,1.3,3.8,1.4,6.3l0.3,4.1h8.7h8.7v-3.8c0-4.5-1.6-11.3-3.7-15.5c-3.1-6.2-10.4-11.7-17.8-13.5c-4.1-1-12.4-1.1-16.6-0.2
		c-8.1,1.7-16.2,7.7-19.6,14.8c-3.1,6.3-3.4,8.7-3.4,23.8v13.6H232h-7.1V46.7c0-9.3-0.2-11.9-1.1-15.4C220.6,18.8,211,9.1,198.8,6
		C193.8,4.7,184.9,4.9,179.8,6.4L179.8,6.4z"/>
	<path id="path3347" inkscape:connector-curvature="0" class="st1" d="M394.3,6c-9.9,2.7-17.6,10-20.8,20c-0.8,2.5-1,5.7-1.2,17.7
		l-0.2,14.7h-7.6h-7.6V32.6V6.8H348h-8.8v34.1V75h25.3h25.3v-20c0-12.2,0.2-21.1,0.6-22.8c0.8-3.5,3.2-6.8,6.1-8.4
		c1.9-1,3.2-1.2,6.7-1.2c5.8,0,8.8,1.6,10.9,5.9l1.4,2.9v21.9V75h7.6c6.7,0,7.8-0.1,8.9-1.1l1.3-1.1l0-21.3c0-18.5-0.1-21.8-1-24.8
		c-1.6-5.9-3.7-9.5-7.5-13.3c-5.9-5.9-12.1-8.2-22-8.2C399.8,5.2,395.9,5.6,394.3,6L394.3,6z"/>
</g>
<image style="overflow:visible;" width="1016" height="1166" id="Logo_Kuttercraft_copia_xA0_Imagen" xlink:href="8C6D1A4A.png"  transform="matrix(0.2882 0 0 0.2882 145.3676 169.8554)">
</image>
</svg>
